<?xml version="1.0" standalone="no"?>
<svg xmlns="http://www.w3.org/2000/svg" viewBox="0 0 1440 320">
<defs>
  <linearGradient id="gradient">
    <stop offset="5%" stop-color="#f46b45" />
    <stop offset="95%" stop-color="#eea849" />
  </linearGradient>
</defs>
<path fill="url(#gradient)" fill-opacity="1" d="M0,160L40,165.3C80,171,160,181,240,202.7C320,224,400,256,480,250.7C560,245,640,203,720,208C800,213,880,267,960,277.3C1040,288,1120,256,1200,224C1280,192,1360,160,1400,144L1440,128L1440,320L1400,320C1360,320,1280,320,1200,320C1120,320,1040,320,960,320C880,320,800,320,720,320C640,320,560,320,480,320C400,320,320,320,240,320C160,320,80,320,40,320L0,320Z"></path>
</svg>
